<?xml version="1.0" standalone="no"?>
<!DOCTYPE svg PUBLIC "-//W3C//DTD SVG 20010904//EN"
 "http://www.w3.org/TR/2001/REC-SVG-20010904/DTD/svg10.dtd">
<svg version="1.0" xmlns="http://www.w3.org/2000/svg"
 width="512.000000pt" height="512.000000pt" viewBox="0 0 512.000000 512.000000"
 preserveAspectRatio="xMidYMid meet">
<metadata>
Created by potrace 1.14, written by Peter Selinger 2001-2017
</metadata>
<g transform="translate(0.000000,512.000000) scale(0.100000,-0.100000)"
fill="#000000" stroke="none">
<path d="M1747 4124 c-15 -8 -32 -26 -37 -39 -9 -23 45 -2838 55 -2882 3 -12
15 -32 28 -44 23 -22 56 -22 228 -3 l56 6 0 72 c1 196 146 770 280 1111 135
341 259 540 395 632 108 74 212 71 250 -7 89 -183 139 -897 107 -1532 -8 -166
-8 -226 1 -247 45 -111 190 -122 284 -22 l29 30 -6 363 c-16 898 -71 1331
-199 1571 -40 75 -145 173 -202 188 -53 15 -189 4 -269 -22 -189 -59 -362
-215 -496 -447 -58 -99 -133 -277 -190 -449 l-48 -142 -6 442 c-4 243 -7 648
-7 900 l0 459 -29 27 c-52 49 -166 67 -224 35z"/>
</g>
</svg>
